<svg id="レイヤー_1" data-name="レイヤー 1" xmlns="http://www.w3.org/2000/svg" viewBox="0 0 546.68 94.49"><defs><style>.cls-1{fill:#df0011;}.cls-2{fill:#fff;}</style></defs><rect class="cls-1" width="364.45" height="94.49"/><path class="cls-2" d="M37.26,21.93,50.59,50.11,63.92,21.93H76.74L50.59,74.24,24.43,21.93Z"/><polygon class="cls-2" points="163.53 21.93 163.53 52.31 140.08 21.93 131.14 21.93 131.14 72.55 142.61 72.55 142.61 42.18 166.06 72.55 175 72.55 175 21.93 163.53 21.93"/><path class="cls-2" d="M111.9,72.55h12.83L99.42,21.93H94.36L69.05,72.55H81.87l3.88-7.76H108ZM88.62,55.68l8.27-16.87,8.26,16.87Z"/><polygon class="cls-2" points="321.09 21.93 321.09 52.31 297.64 21.93 288.7 21.93 288.7 72.55 300.17 72.55 300.17 42.18 323.62 72.55 332.56 72.55 332.56 21.93 321.09 21.93"/><path class="cls-2" d="M269.46,72.55h12.83L257,21.93h-5.06L226.61,72.55h12.82l3.88-7.76h22.27ZM246.18,55.68l8.27-16.87,8.26,16.87Z"/><polygon class="cls-2" points="230.28 21.93 186.42 21.93 186.42 32.73 202.61 32.73 202.61 72.55 214.09 72.55 214.09 32.73 230.28 32.73 230.28 21.93"/><path class="cls-1" d="M415.32,49v9.9h-5.64V49L400.9,35.54h6.83l5,8.65,5-8.65h6.6Z"/><path class="cls-1" d="M448.26,47.13a12.93,12.93,0,0,1-1,5.06,11.63,11.63,0,0,1-2.66,3.93,11.89,11.89,0,0,1-4,2.53,14.91,14.91,0,0,1-10.15,0,12,12,0,0,1-4-2.53,11.46,11.46,0,0,1-2.65-3.93,13.84,13.84,0,0,1,0-10.13,11,11,0,0,1,2.65-3.84,11.83,11.83,0,0,1,4-2.44,15.4,15.4,0,0,1,10.15,0,11.69,11.69,0,0,1,4,2.44,11.16,11.16,0,0,1,2.66,3.84A12.87,12.87,0,0,1,448.26,47.13Zm-6,0a8,8,0,0,0-.5-2.84A6.84,6.84,0,0,0,440.35,42a6.4,6.4,0,0,0-2.11-1.49,6.74,6.74,0,0,0-2.72-.54,6.44,6.44,0,0,0-4.82,2,6.38,6.38,0,0,0-1.37,2.26,8.26,8.26,0,0,0-.48,2.84,8.36,8.36,0,0,0,.49,2.92,6.88,6.88,0,0,0,1.37,2.29,6.31,6.31,0,0,0,2.1,1.5,6.93,6.93,0,0,0,5.41,0,6.25,6.25,0,0,0,2.11-1.5,6.61,6.61,0,0,0,1.39-2.29A8.37,8.37,0,0,0,442.22,47.13Z"/><path class="cls-1" d="M470,53.94a8.36,8.36,0,0,1-2,3,9.3,9.3,0,0,1-3.19,1.93,12.65,12.65,0,0,1-8.3,0,9,9,0,0,1-3.14-1.93,8.51,8.51,0,0,1-2-3,10.26,10.26,0,0,1-.69-3.84V35.54h5.61v14.1a6.28,6.28,0,0,0,.25,1.81,4.62,4.62,0,0,0,.76,1.54,3.52,3.52,0,0,0,1.35,1.07,5.35,5.35,0,0,0,4.06,0A3.66,3.66,0,0,0,464.06,53a4.27,4.27,0,0,0,.76-1.54,7.07,7.07,0,0,0,.23-1.81V35.54h5.64V50.1A10.06,10.06,0,0,1,470,53.94Z"/><path class="cls-1" d="M486.46,58.91l-5.08-9.27h-1.92v9.27H474V35.54h8.91a15.47,15.47,0,0,1,3.28.35A8.56,8.56,0,0,1,489,37.06a6.25,6.25,0,0,1,2,2.18,6.88,6.88,0,0,1,.75,3.37,6.2,6.2,0,0,1-1.28,4A7,7,0,0,1,487,48.91l6.11,10Zm-.23-16.2a2.36,2.36,0,0,0-.35-1.34,2.29,2.29,0,0,0-.9-.79,3.63,3.63,0,0,0-1.22-.38,8.63,8.63,0,0,0-1.31-.1h-3v5.44h2.68a8.78,8.78,0,0,0,1.43-.11,4.93,4.93,0,0,0,1.33-.41,2.59,2.59,0,0,0,1-.86A2.51,2.51,0,0,0,486.23,42.71Z"/><path class="cls-1" d="M438.59,7.79a7.15,7.15,0,0,1-.76,3.45,6.17,6.17,0,0,1-2,2.26,9,9,0,0,1-3,1.25,14.9,14.9,0,0,1-3.5.4h-2.81V24h-5.64V.59h8.58A16.24,16.24,0,0,1,433,1a8.68,8.68,0,0,1,2.91,1.22,6,6,0,0,1,1.94,2.22A7.19,7.19,0,0,1,438.59,7.79Zm-5.64,0a2.5,2.5,0,0,0-.33-1.35,2.37,2.37,0,0,0-.89-.83,3.93,3.93,0,0,0-1.27-.39,10.18,10.18,0,0,0-1.47-.1h-2.48v5.51h2.38a8.35,8.35,0,0,0,1.52-.13,4.09,4.09,0,0,0,1.3-.46,2.48,2.48,0,0,0,.91-.88A2.6,2.6,0,0,0,433,7.82Z"/><path class="cls-1" d="M455,24l-1.82-4.59h-9L442.38,24h-6.13L446.05.59h5.48L461.23,24ZM448.69,6.83l-3,8h5.87Z"/><path class="cls-1" d="M475.72,24l-5.08-9.27h-1.92V24h-5.51V.59h8.91a15.47,15.47,0,0,1,3.28.35,8.56,8.56,0,0,1,2.88,1.17,6.25,6.25,0,0,1,2,2.18,6.88,6.88,0,0,1,.75,3.37,6.2,6.2,0,0,1-1.28,4A7,7,0,0,1,476.21,14l6.11,10Zm-.23-16.2a2.36,2.36,0,0,0-.35-1.34,2.29,2.29,0,0,0-.9-.79A3.63,3.63,0,0,0,473,5.25a8.63,8.63,0,0,0-1.31-.1h-3v5.44h2.68a8.78,8.78,0,0,0,1.43-.11,4.93,4.93,0,0,0,1.33-.41,2.59,2.59,0,0,0,1-.86A2.51,2.51,0,0,0,475.49,7.76Z"/><path class="cls-1" d="M499.22,24,490.54,13.2h-.07V24H485V.59h5.51V10.1h.1L498.92.59H506L495.92,11.35,506.58,24Z"/><path class="cls-1" d="M417.43,13.85a6.61,6.61,0,0,0-1.74-2,9.34,9.34,0,0,0-2.35-1.27c-.86-.32-1.68-.61-2.47-.87-.55-.18-1.05-.35-1.49-.52a6.06,6.06,0,0,1-1.14-.54,2.17,2.17,0,0,1-.72-.69,1.82,1.82,0,0,1-.25-1,1.92,1.92,0,0,1,.31-1.14,2.91,2.91,0,0,1,.78-.82,3,3,0,0,1,1.13-.44,5.71,5.71,0,0,1,1.24-.1,5.27,5.27,0,0,1,2.14.48,5,5,0,0,1,2,1.33l2.2-4.4A10.86,10.86,0,0,0,414.68.73a12,12,0,0,0-4-.73,13.44,13.44,0,0,0-3.27.41,9,9,0,0,0-2.91,1.31A7,7,0,0,0,402.38,4a6.73,6.73,0,0,0-.79,3.34A6.42,6.42,0,0,0,402.1,10a6.17,6.17,0,0,0,1.36,1.88,7.31,7.31,0,0,0,1.91,1.27,21.79,21.79,0,0,0,2.2.86c.77.24,1.45.46,2.06.67a7.46,7.46,0,0,1,1.52.7,3.24,3.24,0,0,1,.94.84,1.88,1.88,0,0,1,.33,1.12,2.46,2.46,0,0,1-.27,1.19,2.08,2.08,0,0,1-.71.79,4,4,0,0,1-1,.49,3.11,3.11,0,0,1-1.35.12,8.79,8.79,0,0,1-2.68-.62,19.74,19.74,0,0,1-2.59-1.26l-2.11,4.22a11.13,11.13,0,0,0,2.63,1.39,13.82,13.82,0,0,0,4.85.87,12,12,0,0,0,3.34-.46,8.48,8.48,0,0,0,2.87-1.42,7,7,0,0,0,2-2.42,7.7,7.7,0,0,0,.74-3.48A5.56,5.56,0,0,0,417.43,13.85Z"/><path class="cls-1" d="M421.69,77.69a7.15,7.15,0,0,1-.76,3.45,6.26,6.26,0,0,1-2,2.26,9,9,0,0,1-3,1.25,15,15,0,0,1-3.5.4h-2.81v8.81H404V70.49h8.58a16.24,16.24,0,0,1,3.58.38A8.68,8.68,0,0,1,419,72.09,6,6,0,0,1,421,74.31,7.19,7.19,0,0,1,421.69,77.69Zm-5.64,0a2.5,2.5,0,0,0-.33-1.35,2.37,2.37,0,0,0-.89-.83,3.93,3.93,0,0,0-1.27-.39,10.18,10.18,0,0,0-1.47-.1h-2.48v5.51H412a8.35,8.35,0,0,0,1.52-.13,4.09,4.09,0,0,0,1.3-.46,2.48,2.48,0,0,0,.91-.88A2.6,2.6,0,0,0,416.05,77.72Z"/><path class="cls-1" d="M437.63,93.86l-1.82-4.59h-9l-1.72,4.59h-6.14l9.8-23.37h5.48l9.71,23.37Zm-6.27-17.13-3,8h5.88Z"/><path class="cls-1" d="M480.85,93.86V70.49h5.68V93.86Z"/><path class="cls-1" d="M514.67,82.08a12.93,12.93,0,0,1-1,5.06,11.48,11.48,0,0,1-2.66,3.93,11.89,11.89,0,0,1-4,2.53,14.91,14.91,0,0,1-10.15,0,11.9,11.9,0,0,1-4-2.53,11.48,11.48,0,0,1-2.66-3.93,13.84,13.84,0,0,1,0-10.13,11,11,0,0,1,2.66-3.84,11.69,11.69,0,0,1,4-2.44,15.4,15.4,0,0,1,10.15,0,11.69,11.69,0,0,1,4,2.44A11,11,0,0,1,513.71,77,12.87,12.87,0,0,1,514.67,82.08Zm-6,0a8,8,0,0,0-.5-2.84A6.68,6.68,0,0,0,506.76,77a6.3,6.3,0,0,0-2.11-1.49,7.1,7.1,0,0,0-5.43,0A6.62,6.62,0,0,0,497.11,77a6.52,6.52,0,0,0-1.37,2.26,8.26,8.26,0,0,0-.48,2.84,8.37,8.37,0,0,0,.5,2.92,6.72,6.72,0,0,0,1.37,2.29,6.33,6.33,0,0,0,2.09,1.51,6.66,6.66,0,0,0,2.71.54,6.4,6.4,0,0,0,4.82-2A6.74,6.74,0,0,0,508.13,85,8.37,8.37,0,0,0,508.63,82.08Z"/><path class="cls-1" d="M532.16,93.86l-9.4-15.28h-.1l.13,15.28h-5.48V70.49h6.44l9.37,15.25h.1l-.13-15.25h5.47V93.86Z"/><path class="cls-1" d="M460.18,83.75a6.5,6.5,0,0,0-1.75-2,9.1,9.1,0,0,0-2.34-1.27c-.86-.32-1.68-.61-2.48-.87-.55-.18-1-.35-1.48-.52a6.06,6.06,0,0,1-1.14-.54,2.32,2.32,0,0,1-.73-.69,2.21,2.21,0,0,1,.07-2.13,2.91,2.91,0,0,1,.78-.82,3.09,3.09,0,0,1,1.12-.44,5.82,5.82,0,0,1,1.24-.1,5.28,5.28,0,0,1,2.15.48,5.1,5.1,0,0,1,2,1.33l2.2-4.4a10.86,10.86,0,0,0-2.39-1.18,12.05,12.05,0,0,0-4.05-.73,13.3,13.3,0,0,0-3.26.41,9,9,0,0,0-2.91,1.31,6.86,6.86,0,0,0-2.08,2.27,6.63,6.63,0,0,0-.79,3.34,6.42,6.42,0,0,0,.51,2.69,6,6,0,0,0,1.35,1.88,7.37,7.37,0,0,0,1.92,1.27,18.77,18.77,0,0,0,2.19.86c.77.24,1.46.46,2.07.67a7.12,7.12,0,0,1,1.51.7,3.11,3.11,0,0,1,.94.84,1.88,1.88,0,0,1,.33,1.12,2.46,2.46,0,0,1-.26,1.19,2.17,2.17,0,0,1-.71.79,4.21,4.21,0,0,1-1,.49,3,3,0,0,1-1.34.12,8.72,8.72,0,0,1-2.68-.62A20.53,20.53,0,0,1,446.56,88l-2.11,4.21a11.13,11.13,0,0,0,2.63,1.39,13.83,13.83,0,0,0,4.85.88,12,12,0,0,0,3.33-.47,8.44,8.44,0,0,0,2.88-1.42,6.84,6.84,0,0,0,2-2.42,7.57,7.57,0,0,0,.74-3.48A5.66,5.66,0,0,0,460.18,83.75Z"/><path class="cls-1" d="M477.77,83.75a6.5,6.5,0,0,0-1.75-2,9.1,9.1,0,0,0-2.34-1.27c-.86-.32-1.68-.61-2.48-.87-.55-.18-1-.35-1.48-.52a6.06,6.06,0,0,1-1.14-.54,2.32,2.32,0,0,1-.73-.69,2.21,2.21,0,0,1,.07-2.13,2.91,2.91,0,0,1,.78-.82,3.09,3.09,0,0,1,1.12-.44,5.82,5.82,0,0,1,1.24-.1,5.28,5.28,0,0,1,2.15.48,5,5,0,0,1,2,1.33l2.2-4.4A10.86,10.86,0,0,0,475,70.63a12.05,12.05,0,0,0-4-.73,13.3,13.3,0,0,0-3.26.41,9,9,0,0,0-2.91,1.31,6.86,6.86,0,0,0-2.08,2.27,6.63,6.63,0,0,0-.79,3.34,6.42,6.42,0,0,0,.51,2.69,6,6,0,0,0,1.35,1.88,7.37,7.37,0,0,0,1.92,1.27,19.49,19.49,0,0,0,2.19.86c.77.24,1.46.46,2.07.67a7.12,7.12,0,0,1,1.51.7,3.16,3.16,0,0,1,.95.84,1.88,1.88,0,0,1,.33,1.12,2.46,2.46,0,0,1-.27,1.19,2.08,2.08,0,0,1-.71.79,4.21,4.21,0,0,1-1,.49,3,3,0,0,1-1.34.12,8.79,8.79,0,0,1-2.68-.62A20.53,20.53,0,0,1,464.15,88L462,92.19a11.13,11.13,0,0,0,2.63,1.39,13.83,13.83,0,0,0,4.85.88,12,12,0,0,0,3.33-.47,8.44,8.44,0,0,0,2.88-1.42,6.84,6.84,0,0,0,2-2.42,7.57,7.57,0,0,0,.75-3.48A5.66,5.66,0,0,0,477.77,83.75Z"/><rect class="cls-1" x="542.14" y="89.32" width="4.54" height="4.54"/></svg>