<!--?xml version="1.0" encoding="utf-8"?-->
<!-- Generator: Adobe Illustrator 15.1.0, SVG Export Plug-In . SVG Version: 6.00 Build 0)  -->

<svg version="1.1" id="_x32_" xmlns="http://www.w3.org/2000/svg" xmlns:xlink="http://www.w3.org/1999/xlink" x="0px" y="0px" width="512px" height="512px" viewBox="0 0 512 512" style="width: 256px; height: 256px; opacity: 1;" xml:space="preserve">
<style type="text/css">

	.st0{fill:#4B4B4B;}

</style>
<g>
	<path class="st0" d="M331.813,104.875l-193.156,98.406c-5.641,2.875-7.891,9.797-5.016,15.453
		c2.891,5.641,9.797,7.906,15.453,5.031l193.156-98.422c5.656-2.891,7.906-9.797,5.031-15.453
		C344.391,104.234,337.469,101.984,331.813,104.875z" style="fill: rgb(75, 75, 75);"></path>
	<path class="st0" d="M311.141,263.984c2.875,5.641,9.797,7.891,15.453,5l83.094-42.328c5.656-2.891,7.891-9.797,5.016-15.453
		c-2.891-5.641-9.797-7.891-15.453-5.016l-83.094,42.328C310.516,251.406,308.266,258.313,311.141,263.984z" style="fill: rgb(75, 75, 75);"></path>
	<path class="st0" d="M366.891,155.375l-83.094,42.344c-5.656,2.875-7.906,9.797-5.016,15.438c2.875,5.656,9.781,7.906,15.438,5.016
		l83.094-42.328c5.656-2.875,7.906-9.797,5.031-15.453C379.453,154.75,372.547,152.5,366.891,155.375z" style="fill: rgb(75, 75, 75);"></path>
	<path class="st0" d="M22.156,289.438c0-0.016-0.016-0.016-0.031-0.031l0,0L22.156,289.438z" style="fill: rgb(75, 75, 75);"></path>
	<path class="st0" d="M503.047,209.688l0.031,0.031L401.188,61.188l-0.016-0.016c-3.828-5.5-8.422-10.25-13.453-14.219
		c-7.547-5.969-16.078-10.25-24.875-13.063c-8.828-2.813-17.938-4.188-26.875-4.188c-11.531,0.031-22.813,2.25-32.781,7.297
		l0.031-0.031L55.703,160.734c-6.891,2.953-13.688,6.453-20.078,10.75c-9.891,6.656-18.906,15.281-25.406,26.391
		c-3.234,5.547-5.813,11.688-7.563,18.328S0,229.984,0,237.547c0,1.234,0.031,2.484,0.078,3.766v-0.016
		c0.203,5.313,1.391,10.219,2.969,14.766c2.406,6.828,5.766,12.984,9.219,18.609c3.438,5.578,7,10.594,9.859,14.734l103.078,147.641
		v-0.016c8.969,13.625,19.828,24.875,32.547,32.813c6.406,3.984,13.297,7.125,20.531,9.234s14.813,3.219,22.578,3.219
		c14.5,0,29.516-3.828,44.484-11.313l0,0l241.609-120.906c7.219-3.594,10.141-12.391,6.531-19.609s-12.391-10.141-19.609-6.531
		L232.266,444.828l0,0c-11.609,5.797-22.031,8.219-31.406,8.234c-5.031,0-9.797-0.703-14.359-2.047
		c-6.875-2.016-13.391-5.469-19.625-10.516c-6.219-5.047-12.125-11.672-17.453-19.828l-0.125-0.188L46.188,272.797l-0.016-0.016
		c-3.953-5.703-8.391-12-11.672-17.969c-1.625-2.984-2.969-5.875-3.844-8.406c-0.906-2.547-1.313-4.703-1.375-6.234l0,0
		c-0.031-0.891-0.047-1.766-0.047-2.625c0-6.984,1.094-12.797,2.922-17.844c2.75-7.547,7.188-13.594,13.234-18.938
		c6.031-5.313,13.719-9.781,22.297-13.375l0.438-0.188l248.25-124.125l0.063-0.031c4.859-2.5,11.906-4.125,19.531-4.094
		c7.891-0.016,16.344,1.672,23.641,4.938c3.656,1.641,7.031,3.656,9.984,6c2.953,2.328,5.484,4.969,7.547,7.953L479,226.313
		l0.031,0.047c2.453,3.531,3.734,7.703,3.734,11.922c0,1.703-0.203,3.422-0.641,5.109c-1.469,5.859-5.406,10.781-10.781,13.516
		h-0.016L228,380.844c-4.75,2.406-9.781,3.547-14.797,3.563c-5.203,0-10.391-1.266-15.016-3.641
		c-4.641-2.375-8.734-5.859-11.906-10.438L97.234,242.109c-4.609-6.625-13.703-8.281-20.344-3.672
		c-6.625,4.609-8.266,13.719-3.672,20.344L162.266,387c5.953,8.563,13.781,15.266,22.547,19.766
		c8.781,4.516,18.516,6.875,28.391,6.875c9.484,0,19.125-2.188,28.063-6.734l0.578-0.313l242.75-123.641v0.016
		c12.906-6.563,22.359-18.406,25.891-32.438c1.016-4.047,1.516-8.172,1.516-12.25C512,228.156,508.938,218.156,503.047,209.688z" style="fill: rgb(75, 75, 75);"></path>
	<polygon class="st0" points="179.375,278.313 218.344,334.422 297.438,294.125 258.469,238.016 	" style="fill: rgb(75, 75, 75);"></polygon>
</g>
</svg>
