<!--?xml version="1.0" encoding="utf-8"?-->
<!-- Generator: Adobe Illustrator 15.1.0, SVG Export Plug-In . SVG Version: 6.00 Build 0)  -->

<svg version="1.1" id="_x32_" xmlns="http://www.w3.org/2000/svg" xmlns:xlink="http://www.w3.org/1999/xlink" x="0px" y="0px" width="512px" height="512px" viewBox="0 0 512 512" style="width: 256px; height: 256px; opacity: 1;" xml:space="preserve">
<style type="text/css">

	.st0{fill:#4B4B4B;}

</style>
<g>
	<path class="st0" d="M435.531,129.031H416.25v93.047h19.281c10.656,0,19.313-8.641,19.313-19.297v-54.438
		C454.844,137.688,446.188,129.031,435.531,129.031z" style="fill: rgb(75, 75, 75);"></path>
	<path class="st0" d="M435.531,352.344H416.25v93.031h19.281c10.656,0,19.313-8.656,19.313-19.313v-54.438
		C454.844,360.969,446.188,352.344,435.531,352.344z" style="fill: rgb(75, 75, 75);"></path>
	<path class="st0" d="M435.531,240.688H416.25v93.031h19.281c10.656,0,19.313-8.641,19.313-19.297v-54.438
		C454.844,249.344,446.188,240.688,435.531,240.688z" style="fill: rgb(75, 75, 75);"></path>
	<path class="st0" d="M343.094,92.844H120.297c-8.266,0-15.578-3.313-21.016-8.703c-5.406-5.453-8.688-12.766-8.719-21.016
		c0.031-8.25,3.313-15.578,8.719-21c5.438-5.406,12.75-8.719,21.016-8.719h241.516c9.219,0,16.688-7.469,16.688-16.703
		S371.031,0,361.813,0H120.297c-17.391,0-33.266,7.094-44.641,18.5c-11.391,11.359-18.5,27.25-18.5,44.625V470.75
		c0,22.781,18.469,41.25,41.25,41.25h244.688c31.406,0,56.828-25.438,56.828-56.813V149.656
		C399.922,118.281,374.5,92.844,343.094,92.844z M235.156,410.438c-65.344,0-91.484-13.594-91.484-21.375
		c0-50.594,60.609-35.406,63.609-64.219c0.703-6.875-0.281-13.813-1.375-18.922c-4.438-4.688-8.25-11.672-12.156-22.688
		c-5.906-2.172-11.906-7.172-14.672-19.469c-1.359-6,1.203-11.484,5.453-15.297c0-0.094,0-0.172,0-0.25l-1.969-8.281
		c0-1.172,0.094-2.313,0.188-3.484c-2.141-11.297-4.391-26.234,3.984-48.016c2.641-6.875,12.141-15.297,13.141-14.781
		c1.75,0.875,7.594,3.063,14.797,4.094c6.281,0.922,7.422-0.813,15.609-1.625c16.438-1.656,26.031-2.203,36.969,11.5
		c32.953,8.781,22,52.094,19.203,61.453c3.844,3.766,6.078,9.016,4.781,14.688c-2.766,12.297-8.766,17.297-14.656,19.453
		c-3.922,11.047-7.734,18.031-12.141,22.719c-1.125,5.094-2.109,12.031-1.406,18.906c3,28.813,63.609,13.625,63.609,64.219
		C326.641,396.844,300.5,410.438,235.156,410.438z" style="fill: rgb(75, 75, 75);"></path>
</g>
</svg>
